<?xml version="1.0" encoding="UTF-8" standalone="no"?>
<!-- Created with Inkscape (http://www.inkscape.org/) -->

<svg
   width="250"
   height="40"
   viewBox="0 0 66.145833 10.583333"
   version="1.1"
   id="svg2071"
   xmlns="http://www.w3.org/2000/svg"
   xmlns:svg="http://www.w3.org/2000/svg">
  <defs
     id="defs2068" />
  <g
     id="layer1">
    <path
       id="path526"
       style="font-weight:bold;font-size:9.28061px;line-height:125%;font-family:'Neutraface Text';-inkscape-font-specification:'Neutraface Text Bold';text-align:end;letter-spacing:0px;word-spacing:0px;text-anchor:end;fill:#d73252;fill-opacity:1;stroke-width:0.277569px"
       d="m 11.675826,1.1189456 -0.03268,2.8389728 H 8.8294257 l 0.022579,-2.0519031 -0.021095,-0.00655 h -1.365263 l -0.013966,4.7984739 1.2951431,0.7475527 h 0.050211 l 0.018721,-2.4678701 h 2.8137196 l -0.01872,1.6888211 1.353972,0.024378 0.05616,-4.8002563 -1.336443,-0.7716205 z" />
    <path
       id="path528"
       style="font-weight:bold;font-size:9.28061px;line-height:125%;font-family:'Neutraface Text';-inkscape-font-specification:'Neutraface Text Bold';text-align:end;letter-spacing:0px;word-spacing:0px;text-anchor:end;fill:#d73252;fill-opacity:1;stroke-width:0.277569px"
       d="m 15.975735,3.1176648 c -0.967079,0 -1.405245,0.2529023 -1.795788,0.5710626 l 0.0077,0.00713 0.8979,0.5181777 c 0.172471,-0.1014059 0.4056,-0.190749 0.753791,-0.190749 0.43517,0 0.665132,0.1793418 0.679805,0.5790833 h -5.75e-4 -0.957316 c -1.015427,0 -1.686109,0.301705 -1.694773,1.0440772 -0.0097,0.8076418 0.683463,1.0933973 1.43776,1.0933973 0.55125,0 0.910899,-0.1549692 1.225023,-0.5547222 l -0.03479,0.4813342 h 1.295732 l 0.02375,-1.9743581 c 0.01276,-1.0931735 -0.784173,-1.574433 -1.838283,-1.574433 z m -0.352682,2.1374745 h 0.888683 l -5.75e-4,0.1384621 c -0.0035,0.29369 -0.276596,0.4896482 -0.808458,0.4896482 -0.367475,0 -0.55942,-0.1144 -0.557103,-0.3101914 0.0029,-0.1957972 0.148622,-0.3179189 0.477471,-0.3179189 z" />
    <path
       id="path530"
       style="font-weight:bold;font-size:9.28061px;line-height:125%;font-family:'Neutraface Text';-inkscape-font-specification:'Neutraface Text Bold';text-align:end;letter-spacing:0px;word-spacing:0px;text-anchor:end;fill:#d73252;fill-opacity:1;stroke-width:0.277569px"
       d="m 21.32329,3.1176648 c -0.425488,0 -0.910548,0.1304356 -1.217002,0.7014983 l 0.02587,-0.6281103 h -1.305541 l -0.04013,3.4754027 h 1.305547 l 0.0184,-1.542045 c 0.0086,-0.7423722 0.330563,-0.9706892 0.920478,-0.9706892 0.135248,0 0.254604,0.021964 0.373477,0.059721 l 0.55325,-0.9579134 C 21.794488,3.1825204 21.592826,3.1176648 21.32329,3.1176648 Z" />
    <path
       id="path534"
       style="font-weight:bold;font-size:9.28061px;line-height:125%;font-family:'Neutraface Text';-inkscape-font-specification:'Neutraface Text Bold';text-align:end;letter-spacing:0px;word-spacing:0px;text-anchor:end;fill:#d73252;fill-opacity:1;stroke-width:0.277569px"
       d="m 29.929943,3.1176648 c -1.276528,0 -2.281468,0.7505367 -2.293761,1.8029221 -0.01219,1.0686912 0.92663,1.8192624 2.396564,1.8192624 0.858376,0 1.363393,-0.2191521 1.762807,-0.5116404 L 30.824864,5.6678405 c -0.20437,0.085341 -0.475597,0.1583672 -0.800737,0.1583672 -0.589898,0 -0.935904,-0.2040938 -1.057445,-0.5630419 h 3.123613 c 0.11091,-1.2155478 -0.680742,-2.145501 -2.160352,-2.145501 z m -0.0011,0.8973012 c 0.512549,0 0.799793,0.2283399 0.853328,0.6117699 H 28.954539 C 29.065805,4.2106769 29.416278,4.014966 29.928793,4.014966 Z" />
    <path
       d="m 32.963781,6.6663463 h 1.305512 l 0.02185,-1.8600329 c 0.0061,-0.4405293 0.317482,-0.6852671 0.839696,-0.6852671 0.4642,0 0.684053,0.2202617 0.679488,0.6118503 l -0.02306,1.9334497 h 1.305535 l 0.02426,-2.0068664 c 0.01092,-0.9871273 -0.62991,-1.5418726 -1.529299,-1.5418726 -0.570539,0 -1.056749,0.2284262 -1.313061,0.6444851 l 0.03576,-0.5710626 h -1.305535 z"
       id="path536"
       style="font-weight:bold;font-size:9.28061px;line-height:125%;font-family:'Neutraface Text';-inkscape-font-specification:'Neutraface Text Bold';text-align:end;letter-spacing:0px;word-spacing:0px;text-anchor:end;fill:#d73252;fill-opacity:1;stroke-width:0.277569px" />
    <path
       id="path540"
       style="font-weight:bold;font-size:9.28061px;line-height:125%;font-family:'Neutraface Text';-inkscape-font-specification:'Neutraface Text Bold';text-align:end;letter-spacing:0px;word-spacing:0px;text-anchor:end;fill:#d73252;fill-opacity:1;stroke-width:0.277569px"
       d="m 46.358852,0.82836036 -0.033,2.85234634 c -0.2571,-0.3426364 -0.622091,-0.5630419 -1.279691,-0.5630419 -0.996067,0 -1.855795,0.7345183 -1.868283,1.8032153 -0.01219,1.0684728 0.839621,1.818653 1.845107,1.8189692 0.620739,-1.437e-4 1.055421,-0.2073884 1.293656,-0.5663135 l 0.04456,-0.077545 1.235126,0.7130837 0.05912,-5.2319714 z M 45.430359,4.088653 c 0.560937,0 0.924721,0.3182753 0.91869,0.8322271 -0.0069,0.5465865 -0.377658,0.8565997 -0.938601,0.8565997 -0.551198,0 -0.895651,-0.3100132 -0.889275,-0.8565997 0.0069,-0.5139518 0.357994,-0.8322271 0.909186,-0.8322271 z" />
    <path
       id="path4335-4"
       d="m 54.120178,10.573464 4.573958,-2.6408181 1.7e-5,-5.2815331 v 0 l -4.573963,-2.64078377 1.7e-5,-5.7496e-4 -6e-6,5.7496e-4 -4.573933,2.64078377 v 5.2815733 0 l 4.573922,2.6407549 z"
       style="color:#000000;clip-rule:nonzero;display:inline;overflow:visible;visibility:visible;isolation:auto;mix-blend-mode:normal;color-interpolation:sRGB;color-interpolation-filters:linearRGB;solid-color:#000000;solid-opacity:1;fill:none;fill-opacity:1;fill-rule:evenodd;stroke:none;stroke-width:0.0387077;stroke-linecap:square;stroke-linejoin:round;stroke-miterlimit:4;stroke-dasharray:none;stroke-dashoffset:0;stroke-opacity:1;marker:none;marker-start:none;marker-mid:none;marker-end:none;color-rendering:auto;image-rendering:auto;shape-rendering:auto;text-rendering:auto;enable-background:accumulate" />
    <path
       id="path4328-4"
       d="M 54.120184,3.5488567 55.675718,2.6507563 54.120201,1.7526847 52.564685,2.6507736 Z m 1.7e-5,-1.796172 v -2.53e-4 l -1.7e-5,2.53e-4 1.7e-5,1.15e-5 z"
       style="color:#000000;clip-rule:nonzero;display:inline;overflow:visible;visibility:visible;isolation:auto;mix-blend-mode:normal;color-interpolation:sRGB;color-interpolation-filters:linearRGB;solid-color:#000000;solid-opacity:1;fill:#d73252;fill-opacity:1;fill-rule:evenodd;stroke:none;stroke-width:0.172488;stroke-linecap:round;stroke-linejoin:round;stroke-miterlimit:4;stroke-dasharray:none;stroke-dashoffset:0;stroke-opacity:1;marker:none;marker-start:none;marker-mid:none;marker-end:none;color-rendering:auto;image-rendering:auto;shape-rendering:auto;text-rendering:auto;enable-background:accumulate" />
    <path
       id="path4330-8"
       style="color:#000000;clip-rule:nonzero;display:inline;overflow:visible;visibility:visible;isolation:auto;mix-blend-mode:normal;color-interpolation:sRGB;color-interpolation-filters:linearRGB;solid-color:#000000;solid-opacity:1;fill:#d73252;fill-opacity:1;fill-rule:evenodd;stroke:none;stroke-width:0.172488;stroke-linecap:round;stroke-linejoin:round;stroke-miterlimit:4;stroke-dasharray:none;stroke-dashoffset:0;stroke-opacity:1;marker:none;marker-start:none;marker-mid:none;marker-end:none;color-rendering:auto;image-rendering:auto;shape-rendering:auto;text-rendering:auto;enable-background:accumulate"
       d="m 49.546348,2.6508886 -2.93e-4,2.99e-4 v 5.2815905 l 4.574146,2.6408009 4.573854,-2.6408009 V 2.6511876 l -2.93e-4,-2.99e-4 -4.573561,2.640801 z m 1.63505,3.2421698 0.50807,0.2932531 v 1.7345822 c 0,0.5260719 -0.308346,0.5873512 -0.758546,0.3274287 -0.406779,-0.2348543 -0.642305,-0.581412 -0.762109,-0.9041375 l 0.413591,-0.011614 c 0.07982,0.1876787 0.152272,0.3493577 0.326831,0.4501369 0.166911,0.096369 0.272163,0.091712 0.272163,-0.1622252 z m 1.244037,0.8010298 c 0.117493,-0.00345 0.26454,0.04111 0.434688,0.1393532 0.323013,0.1864943 0.555251,0.4329341 0.722593,0.8239075 l -0.395469,0.025528 C 53.10014,7.4764029 53.006008,7.3606518 52.860123,7.27642 52.711311,7.190504 52.617075,7.230366 52.617075,7.353672 c 0,0.1524163 0.09429,0.2688057 0.312273,0.4890559 l 0.12717,0.1274689 c 0.431663,0.4343254 0.675349,0.763893 0.675349,1.1881796 0,0.4574101 -0.359483,0.5005494 -0.842036,0.2219464 C 52.417995,9.1079119 52.113162,8.7069572 51.964006,8.3261433 l 0.413,-0.00172 c 0.108904,0.2406901 0.250654,0.4534256 0.50124,0.5980972 0.210516,0.121541 0.344953,0.093977 0.344953,-0.051402 0,-0.1742073 -0.138203,-0.3157282 -0.369912,-0.5508585 L 52.726416,8.1924937 C 52.359803,7.8246452 52.116135,7.4880804 52.116135,7.0744363 c 0,-0.2381431 0.113474,-0.3752022 0.3093,-0.3806069 z" />
    <path
       id="path1973"
       style="font-weight:bold;font-size:9.28061px;line-height:125%;font-family:'Neutraface Text';-inkscape-font-specification:'Neutraface Text Bold';text-align:end;letter-spacing:0px;word-spacing:0px;text-anchor:end;fill:#d73252;fill-opacity:1;stroke-width:0.277569px"
       d="m 25.486816,1.2763745 -0.02067,2.4045378 C 25.209049,3.3382768 24.844234,3.1176392 24.186637,3.1176392 c -0.996065,0 -1.855615,0.734297 -1.868103,1.8029907 -0.01219,1.0684695 0.839366,1.8186942 1.844849,1.8190104 0.620736,-1.437e-4 1.055226,-0.206933 1.293461,-0.5658569 l 0.0217,-0.038241 -0.0052,0.530717 h 0.01344 1.00304 0.248563 l 0.05374,-5.3898853 z m -0.942061,2.8122648 c 0.0085,-1.548e-4 0.01723,0 0.02584,0 0.560935,0 0.924838,0.3180403 0.918807,0.8319906 -0.0069,0.5465847 -0.377503,0.8567952 -0.938444,0.8567952 -0.551197,0 -0.895729,-0.3102105 -0.889352,-0.8567952 0.0068,-0.5059198 0.346768,-0.8222365 0.883151,-0.8319906 z" />
    <path
       id="path2025"
       style="font-weight:bold;font-size:9.28061px;line-height:125%;font-family:'Neutraface Text';-inkscape-font-specification:'Neutraface Text Bold';text-align:end;letter-spacing:0px;word-spacing:0px;text-anchor:end;fill:#d73252;fill-opacity:1;stroke-width:0.277569px"
       d="m 40.258419,3.1176648 c -1.276528,0 -2.281468,0.7505367 -2.29376,1.8029221 -0.01219,1.0686912 0.92663,1.8192624 2.396563,1.8192624 0.858376,0 1.363393,-0.2191521 1.762807,-0.5116404 L 41.15334,5.6678405 c -0.20437,0.085341 -0.475596,0.1583672 -0.800737,0.1583672 -0.589898,0 -0.935904,-0.2040938 -1.057445,-0.5630419 h 3.123613 c 0.11091,-1.2155478 -0.680742,-2.145501 -2.160352,-2.145501 z m -0.0011,0.8973012 c 0.512549,0 0.799794,0.2283399 0.853328,0.6117699 h -1.827582 c 0.111267,-0.416059 0.46174,-0.6117699 0.974254,-0.6117699 z" />
  </g>
</svg>
